<svg xmlns="http://www.w3.org/2000/svg" viewBox="0 0 24 24" fill="#F24607">
  <path d="M21.93 6.62l-5-3.47c-.86-.6-2.01-.6-2.87 0l-5 3.47c-.31.22-.36.64-.14.96.23.31.65.38.97.15l5-3.47c.43-.3 1-.3 1.43 0l5 3.47c.12.09.26.13.4.13.22 0 .43-.1.57-.28.23-.32.18-.74-.14-.96z"/>
  <path d="M19 10c0-.55-.45-1-1-1h-3V5c0-.55-.45-1-1-1s-1 .45-1 1v4h-3c-.55 0-1 .45-1 1s.45 1 1 1h3v10c0 .55.45 1 1 1s1-.45 1-1V11h3c.55 0 1-.45 1-1z"/>
  <path d="M7 11c-1.1 0-2 .9-2 2v7c0 1.1.9 2 2 2s2-.9 2-2v-7c0-1.1-.9-2-2-2z"/>
  <path d="M7 7c1.1 0 2-.9 2-2s-.9-2-2-2-2 .9-2 2 .9 2 2 2z"/>
</svg>
